<?xml version="1.0" encoding="UTF-8"?>
<!DOCTYPE svg PUBLIC "-//W3C//DTD SVG 1.1//EN" "http://www.w3.org/Graphics/SVG/1.1/DTD/svg11.dtd">
<svg xmlns="http://www.w3.org/2000/svg" version="1.1" viewBox="0 0 512 512" style="shape-rendering:geometricPrecision; text-rendering:geometricPrecision; image-rendering:optimizeQuality; fill-rule:evenodd; clip-rule:evenodd" xmlns:xlink="http://www.w3.org/1999/xlink">
<g><path style="opacity:0.945" fill="#fefffe" d="M 234.5,-0.5 C 248.5,-0.5 262.5,-0.5 276.5,-0.5C 303.095,2.32045 328.428,9.82045 352.5,22C 358.331,29.1748 357.331,35.1748 349.5,40C 346.833,40.6667 344.167,40.6667 341.5,40C 301.323,20.7277 259.323,15.3944 215.5,24C 181.144,30.5894 151.977,46.4227 128,71.5C 98.9606,107.741 96.9606,145.407 122,184.5C 127.709,190.54 133.043,196.874 138,203.5C 138.333,211.5 138.667,219.5 139,227.5C 142.883,223.95 147.049,220.783 151.5,218C 154.167,217.333 156.833,217.333 159.5,218C 213.617,247.364 269.617,251.364 327.5,230C 335.779,226.527 343.779,222.527 351.5,218C 354.167,217.333 356.833,217.333 359.5,218C 363.951,220.783 368.117,223.95 372,227.5C 372.333,219.5 372.667,211.5 373,203.5C 380.047,195.455 386.713,187.122 393,178.5C 403.954,160.68 408.288,141.347 406,120.5C 404.002,111.011 401.502,101.678 398.5,92.5C 400.501,82.832 406.168,79.9987 415.5,84C 422.016,94.5455 425.849,106.046 427,118.5C 430.28,154.666 419.28,185.666 394,211.5C 393.667,222.167 393.333,232.833 393,243.5C 388.939,253.28 381.772,256.78 371.5,254C 365.667,249.5 359.833,245 354,240.5C 323.299,256.883 290.466,264.883 255.5,264.5C 220.534,264.883 187.701,256.883 157,240.5C 151.167,245 145.333,249.5 139.5,254C 129.228,256.78 122.061,253.28 118,243.5C 117.667,232.833 117.333,222.167 117,211.5C 84.063,176.819 75.3963,136.819 91,91.5C 102.717,65.1114 120.884,44.278 145.5,29C 173.082,12.6393 202.748,2.80592 234.5,-0.5 Z"/></g>
<g><path style="opacity:0.954" fill="#fefffe" d="M 239.5,42.5 C 250.172,42.3335 260.839,42.5002 271.5,43C 278.026,45.5257 282.526,50.0257 285,56.5C 286.37,64.7637 286.87,73.097 286.5,81.5C 293.841,81.3337 301.174,81.5003 308.5,82C 316.712,83.2136 322.212,87.7136 325,95.5C 327,106.833 327,118.167 325,129.5C 322.064,137.722 316.231,142.222 307.5,143C 300.508,143.5 293.508,143.666 286.5,143.5C 286.942,164.545 286.442,185.545 285,206.5C 278.755,218.202 268.922,222.869 255.5,220.5C 242.078,222.869 232.245,218.202 226,206.5C 224.558,185.545 224.058,164.545 224.5,143.5C 217.492,143.666 210.492,143.5 203.5,143C 194.769,142.222 188.936,137.722 186,129.5C 184,118.167 184,106.833 186,95.5C 188.813,87.6845 194.313,83.1845 202.5,82C 209.826,81.5003 217.159,81.3337 224.5,81.5C 223.895,72.0058 224.729,62.6725 227,53.5C 230.124,48.5362 234.291,44.8696 239.5,42.5 Z M 245.5,63.5 C 252.167,63.5 258.833,63.5 265.5,63.5C 265.333,74.505 265.5,85.505 266,96.5C 266.785,98.286 267.951,99.786 269.5,101C 281.399,102.459 293.399,102.959 305.5,102.5C 305.5,109.167 305.5,115.833 305.5,122.5C 294.162,122.333 282.828,122.5 271.5,123C 269.714,123.785 268.214,124.951 267,126.5C 265.52,150.743 265.02,175.077 265.5,199.5C 258.833,199.5 252.167,199.5 245.5,199.5C 245.98,175.077 245.48,150.743 244,126.5C 242.786,124.951 241.286,123.785 239.5,123C 228.172,122.5 216.838,122.333 205.5,122.5C 205.5,115.833 205.5,109.167 205.5,102.5C 217.601,102.959 229.601,102.459 241.5,101C 243.049,99.786 244.215,98.286 245,96.5C 245.5,85.505 245.667,74.505 245.5,63.5 Z"/></g>
<g><path style="opacity:0.881" fill="#fefffe" d="M 379.5,45.5 C 390.654,45.4792 394.82,50.8126 392,61.5C 387.782,66.6297 382.616,67.7964 376.5,65C 372.741,61.2566 371.574,56.7566 373,51.5C 374.436,48.5581 376.603,46.5581 379.5,45.5 Z"/></g>
<g><path style="opacity:0.954" fill="#fefffe" d="M 488.5,511.5 C 333.167,511.5 177.833,511.5 22.5,511.5C 15.2409,507.436 12.2409,501.103 13.5,492.5C 13.1342,467.033 24.4675,449.2 47.5,439C 33.8067,414.802 37.8067,394.135 59.5,377C 66.1022,373.466 73.1022,371.133 80.5,370C 86.7873,360.706 95.1206,354.04 105.5,350C 97.5447,338.611 95.378,326.111 99,312.5C 105.871,293.23 119.538,283.23 140,282.5C 160.462,283.23 174.129,293.23 181,312.5C 184.627,326.082 182.461,338.582 174.5,350C 183.637,353.995 191.47,359.828 198,367.5C 204.021,359.818 211.521,353.985 220.5,350C 209.113,331.035 210.28,312.869 224,295.5C 240.086,281.166 257.92,278.666 277.5,288C 295.541,300.784 301.708,317.951 296,339.5C 294.294,343.079 292.461,346.579 290.5,350C 299.479,353.985 306.979,359.818 313,367.5C 319.53,359.828 327.363,353.995 336.5,350C 326.379,334.202 325.879,318.035 335,301.5C 347.213,284.982 363.38,279.149 383.5,284C 406.006,292.833 415.84,309.333 413,333.5C 411.714,339.571 409.214,345.071 405.5,350C 415.879,354.04 424.213,360.706 430.5,370C 463.014,376.525 475.848,396.025 469,428.5C 467.294,432.079 465.461,435.579 463.5,439C 486.532,449.2 497.866,467.033 497.5,492.5C 498.759,501.103 495.759,507.436 488.5,511.5 Z M 134.5,303.5 C 155.137,303.298 163.637,313.298 160,333.5C 152.206,346.763 141.372,349.929 127.5,343C 118.267,335.133 116.101,325.633 121,314.5C 124.336,309.269 128.836,305.602 134.5,303.5 Z M 250.5,303.5 C 264.798,302.307 273.631,308.64 277,322.5C 277.395,334.443 271.895,342.276 260.5,346C 243.274,347.488 234.441,339.655 234,322.5C 236.15,313.188 241.65,306.855 250.5,303.5 Z M 366.5,303.5 C 384.798,303.297 393.298,312.297 392,330.5C 385.963,345.266 375.463,349.766 360.5,344C 349.576,336.556 346.743,326.722 352,314.5C 355.562,308.988 360.396,305.322 366.5,303.5 Z M 118.5,368.5 C 132.837,368.333 147.171,368.5 161.5,369C 167.153,369.994 172.153,372.327 176.5,376C 159.386,387.394 152.553,403.228 156,423.5C 157.571,429.141 160.071,434.307 163.5,439C 154.304,442.525 146.471,448.025 140,455.5C 133.529,448.025 125.696,442.525 116.5,439C 123.961,428.648 126.461,417.148 124,404.5C 121.01,392.185 114.177,382.685 103.5,376C 108.045,372.394 113.045,369.894 118.5,368.5 Z M 234.5,368.5 C 248.504,368.333 262.504,368.5 276.5,369C 282.258,369.803 287.258,372.137 291.5,376C 269.178,393.119 264.844,413.952 278.5,438.5C 269.51,442.483 261.843,448.15 255.5,455.5C 249.157,448.15 241.49,442.483 232.5,438.5C 243.28,421.409 243.113,404.409 232,387.5C 228.088,382.917 223.588,379.083 218.5,376C 223.426,372.424 228.76,369.924 234.5,368.5 Z M 349.5,368.5 C 363.837,368.333 378.171,368.5 392.5,369C 398.153,369.994 403.153,372.327 407.5,376C 388.225,389.156 382.058,406.989 389,429.5C 390.455,432.912 392.288,436.079 394.5,439C 385.304,442.525 377.471,448.025 371,455.5C 364.529,448.025 356.696,442.525 347.5,439C 359.21,421.498 359.043,403.998 347,386.5C 343.419,382.248 339.252,378.748 334.5,376C 339.045,372.394 344.045,369.894 349.5,368.5 Z M 79.5,391.5 C 97.3143,392.48 105.148,401.813 103,419.5C 97.0518,433.389 86.8852,437.889 72.5,433C 60.5362,424.979 57.7029,414.479 64,401.5C 68.2391,396.479 73.4057,393.146 79.5,391.5 Z M 194.5,391.5 C 213.427,392.918 221.26,402.918 218,421.5C 211.951,432.609 202.785,436.775 190.5,434C 175.626,425.841 172.459,414.341 181,399.5C 184.897,395.641 189.397,392.975 194.5,391.5 Z M 310.5,391.5 C 328.314,392.48 336.148,401.813 334,419.5C 326.919,435.065 315.752,438.898 300.5,431C 287.805,417.56 288.805,405.227 303.5,394C 306.004,393.302 308.337,392.469 310.5,391.5 Z M 425.5,391.5 C 440.097,391.766 448.431,399.099 450.5,413.5C 447.755,430.201 438.089,437.034 421.5,434C 406.626,425.841 403.459,414.341 412,399.5C 415.897,395.641 420.397,392.975 425.5,391.5 Z M 58.5,457.5 C 75.5697,457.043 92.5697,457.543 109.5,459C 123.251,464.932 129.917,475.432 129.5,490.5C 97.8333,490.5 66.1667,490.5 34.5,490.5C 34.9162,473.78 42.9162,462.78 58.5,457.5 Z M 173.5,457.5 C 189.503,457.333 205.503,457.5 221.5,458C 237.57,462.901 245.237,473.735 244.5,490.5C 213.167,490.5 181.833,490.5 150.5,490.5C 150.541,474.057 158.208,463.057 173.5,457.5 Z M 289.5,457.5 C 306.57,457.043 323.57,457.543 340.5,459C 354.251,464.932 360.917,475.432 360.5,490.5C 329.167,490.5 297.833,490.5 266.5,490.5C 265.967,473.712 273.633,462.712 289.5,457.5 Z M 404.5,457.5 C 421.889,457.056 439.223,457.556 456.5,459C 469.844,465.173 476.51,475.673 476.5,490.5C 444.833,490.5 413.167,490.5 381.5,490.5C 381.541,474.057 389.208,463.057 404.5,457.5 Z"/></g>
</svg>
