<svg width="443" height="443" viewBox="0 0 443 443" fill="none" xmlns="http://www.w3.org/2000/svg">
<path d="M22.15 199.35C35.44 199.35 44.3 208.21 44.3 221.5C44.3 285.735 77.525 343.325 132.9 374.335C217.07 423.065 325.605 394.27 374.335 310.1C423.065 225.93 394.27 117.395 310.1 68.665C237.005 26.58 148.405 42.085 93.03 99.675H146.19C159.48 99.675 168.34 108.535 168.34 121.825C168.34 135.115 159.48 143.975 146.19 143.975H46.515C33.225 143.975 24.365 135.115 24.365 121.825V22.15C24.365 8.86 33.225 0 46.515 0C59.805 0 68.665 8.86 68.665 22.15V62.02C110.75 22.15 163.91 0 221.5 0C343.325 0 443 99.675 443 221.5C443 343.325 343.325 443 221.5 443C99.675 443 7.62939e-06 343.325 7.62939e-06 221.5C7.62939e-06 208.21 8.86001 199.35 22.15 199.35Z" fill="white"/>
</svg>
