<svg id="Layer_1" data-name="Layer 1" xmlns="http://www.w3.org/2000/svg" viewBox="0 0 64 64"><title>candle_1</title><path d="M51,57H13a1,1,0,0,1-.83-.45l-4-6a1,1,0,0,1-.05-1A1,1,0,0,1,9,49H55a1,1,0,0,1,.88.53,1,1,0,0,1-.05,1l-4,6A1,1,0,0,1,51,57ZM13.54,55H50.46l2.67-4H10.87Z" id="id_106" style="fill: rgb(255, 255, 255);"></path><path d="M39,51H25a1,1,0,0,1-1-1V20a1,1,0,0,1,1-1H39a1,1,0,0,1,1,1V50A1,1,0,0,1,39,51ZM26,49H38V21H26Z" id="id_107" style="fill: rgb(255, 255, 255);"></path><path d="M32,17a5.19,5.19,0,0,1-4.44-2.22,3.48,3.48,0,0,1-.2-3.43L31.1,3.57a1,1,0,0,1,1.8,0l3.74,7.78a3.48,3.48,0,0,1-.2,3.43A5.19,5.19,0,0,1,32,17ZM32,6.31l-2.84,5.91a1.51,1.51,0,0,0,.09,1.5,3.59,3.59,0,0,0,5.5,0,1.51,1.51,0,0,0,.09-1.5Z" id="id_108" style="fill: rgb(255, 255, 255);"></path><path d="M32,21a1,1,0,0,1-1-1V16a1,1,0,0,1,2,0v4A1,1,0,0,1,32,21Z" id="id_109" style="fill: rgb(255, 255, 255);"></path><path d="M28,41a4,4,0,0,1-4-4V20a1,1,0,0,1,1-1H39a1,1,0,0,1,1,1V30a5,5,0,0,1-8,4v3A4,4,0,0,1,28,41ZM26,21V37a2,2,0,0,0,4,0V30a1,1,0,0,1,2,0,3,3,0,0,0,6,0V21Z" id="id_110" style="fill: rgb(255, 255, 255);"></path></svg>