<svg width="71" height="55" viewBox="0 0 71 55" fill="none" xmlns="http://www.w3.org/2000/svg">
<path d="M15.3218 0.967967C14.0928 -0.261036 12.0581 -0.36612 10.7672 0.920439C4.11724 7.54787 0 16.7202 0 26.8522C0 37.3782 4.44376 46.8681 11.5544 53.5454C12.8533 54.7649 14.8333 54.6357 16.036 53.4332C17.4384 52.0309 17.2678 49.8005 15.9157 48.5078C10.2088 43.0526 6.65645 35.368 6.65645 26.8522C6.65645 18.658 9.94518 11.2343 15.2772 5.82505C16.5651 4.51861 16.6955 2.34173 15.3218 0.967967Z" fill="white"/>
<path d="M23.1392 8.78496C21.9447 7.59043 19.9486 7.4412 18.6632 8.71311C13.9906 13.3368 11.0938 19.7568 11.0938 26.8513C11.0938 34.3578 14.3363 41.1078 19.4937 45.7753C20.7882 46.9469 22.7017 46.7663 23.8572 45.6107C25.3134 44.1547 25.0392 41.8627 23.6745 40.5762C20.0256 37.1357 17.7502 32.2601 17.7502 26.8513C17.7502 21.7452 19.7779 17.1149 23.0745 13.718C24.3449 12.4089 24.5512 10.1969 23.1392 8.78496Z" fill="white"/>
<path d="M47.8623 8.78496C49.0569 7.59043 51.0529 7.4412 52.3385 8.71311C57.0109 13.3368 59.9078 19.7568 59.9078 26.8513C59.9078 34.3578 56.6652 41.1078 51.5078 45.7753C50.2133 46.9469 48.2998 46.7663 47.1442 45.6107C45.6883 44.1547 45.9621 41.8627 47.3271 40.5762C50.9761 37.1357 53.2513 32.2601 53.2513 26.8513C53.2513 21.7452 51.2238 17.1149 47.927 13.718C46.6566 12.4089 46.4502 10.1969 47.8623 8.78496Z" fill="white"/>
<path d="M55.6781 0.967967C56.9074 -0.261036 58.942 -0.36612 60.2329 0.920439C66.8827 7.54787 70.9999 16.7202 70.9999 26.8522C70.9999 37.3782 66.5561 46.8681 59.4457 53.5454C58.1468 54.7649 56.1667 54.6357 54.9641 53.4332C53.5614 52.0309 53.7322 49.8005 55.0844 48.5078C60.7912 43.0526 64.3435 35.368 64.3435 26.8522C64.3435 18.658 61.0548 11.2343 55.7225 5.82505C54.4347 4.51861 54.3042 2.34173 55.6781 0.967967Z" fill="white"/>
<path d="M35.5012 20.1958C31.8249 20.1958 28.8447 23.176 28.8447 26.8523C28.8447 30.5284 31.8249 33.5087 35.5012 33.5087C39.1773 33.5087 42.1576 30.5284 42.1576 26.8523C42.1576 23.176 39.1773 20.1958 35.5012 20.1958Z" fill="white"/>
</svg>
